<svg width="28" height="28" viewBox="0 0 28 28" fill="none" xmlns="http://www.w3.org/2000/svg">
<g clip-path="url(#clip0_0_166)">
<path d="M12.0167 20.164V24.1618C12.0116 24.312 11.9482 24.4544 11.84 24.5588C11.7319 24.6632 11.5874 24.7216 11.4371 24.7214H7.23946C6.54928 24.6052 5.92448 24.243 5.48046 23.702" stroke="#757575" stroke-width="2" stroke-linecap="round" stroke-linejoin="round"/>
<path d="M5.4804 23.7218C5.4804 23.7218 3.30164 21.8228 8.35876 16.7658H10.6175L7.2394 11.189H1.02295L2.72198 13.3677C2.72198 13.3677 1.58263 13.5676 1.58263 15.1467C2.18024 18.2748 3.5166 21.2148 5.4804 23.7218Z" stroke="#757575" stroke-width="2" stroke-linecap="round" stroke-linejoin="round"/>
<path d="M20.7116 12.7482L23.67 10.7493C23.736 10.7202 23.8076 10.7051 23.8798 10.7051C23.9522 10.7051 24.0236 10.7202 24.0898 10.7493C24.167 10.7584 24.2412 10.7846 24.3068 10.8261C24.3726 10.8676 24.4282 10.9234 24.4696 10.9892L26.7682 14.4272C26.9056 14.7036 26.977 15.0081 26.977 15.3167C26.977 15.6254 26.9056 15.9298 26.7682 16.2062" stroke="#757575" stroke-width="2" stroke-linecap="round" stroke-linejoin="round"/>
<path d="M26.8482 16.0063C26.8482 16.0063 26.2086 18.6049 19.5924 18.0052V16.2662L15.7146 21.3432L19.3925 27L19.5924 24.3416C19.5924 24.3416 20.332 25.241 21.5912 24.3416C23.7032 21.807 25.4708 19.0043 26.8482 16.0063Z" stroke="#757575" stroke-width="2" stroke-linecap="round" stroke-linejoin="round"/>
<path d="M8.71866 8.57034L6.0202 7.33104C5.8871 7.26228 5.78456 7.14618 5.73278 7.0056C5.68098 6.86502 5.68368 6.71016 5.74036 6.57148L8.01906 2.01408C8.17128 1.74426 8.38416 1.51351 8.64086 1.34007C8.89756 1.16662 9.19106 1.05521 9.4982 1.01465" stroke="#757575" stroke-width="2" stroke-linecap="round" stroke-linejoin="round"/>
<path d="M9.49804 1.01485C9.49804 1.01485 11.9566 1.01485 15.0749 7.01142L13.4558 9.01028H20.172L22.5506 2.73386L19.7522 3.59338C19.7115 3.15968 19.5545 2.745 19.2976 2.39318C19.0408 2.04134 18.6937 1.76541 18.293 1.59451C16.9153 1.13841 15.4649 0.941864 14.0155 1.01485H9.49804Z" stroke="#757575" stroke-width="2" stroke-linecap="round" stroke-linejoin="round"/>
</g>
<defs>
<clipPath id="clip0_0_166">
<rect width="28" height="28" fill="white"/>
</clipPath>
</defs>
</svg>
