<svg width="28" height="28" viewBox="0 0 28 28" fill="none" xmlns="http://www.w3.org/2000/svg">
<g clip-path="url(#clip0_0_160)">
<path d="M14 26.9998C11.0705 23.7744 7.09762 21.6854 2.78004 21.0998C2.2886 21.0454 1.83472 20.8108 1.50601 20.4416C1.17729 20.0722 0.997039 19.5942 1.00004 19.0998V2.99976C1.00002 2.71088 1.06258 2.42542 1.18342 2.16302C1.30426 1.90063 1.48051 1.66753 1.70004 1.47976C1.9157 1.2954 2.16812 1.15904 2.44054 1.07973C2.71294 1.00042 2.99912 0.979976 3.28004 1.01976C7.40862 1.70497 11.1855 3.76252 14 6.85976V26.9998Z" stroke="#757575" stroke-width="2" stroke-linecap="round" stroke-linejoin="round"/>
<path d="M14 26.9998C16.9295 23.7744 20.9024 21.6854 25.22 21.0998C25.7114 21.0454 26.1654 20.8108 26.494 20.4416C26.8228 20.0722 27.003 19.5942 27 19.0998V2.99976C27 2.71088 26.9374 2.42542 26.8166 2.16302C26.6958 1.90063 26.5196 1.66753 26.3 1.47976C26.0844 1.2954 25.832 1.15904 25.5596 1.07973C25.287 1.00042 25.001 0.979976 24.72 1.01976C20.5914 1.70497 16.8146 3.76252 14 6.85976V26.9998Z" stroke="#757575" stroke-width="2" stroke-linecap="round" stroke-linejoin="round"/>
</g>
<defs>
<clipPath id="clip0_0_160">
<rect width="28" height="28" fill="white"/>
</clipPath>
</defs>
</svg>
