<svg width="19" height="19" viewBox="0 0 19 19" fill="none" xmlns="http://www.w3.org/2000/svg">
<g clip-path="url(#clip0_0_107)">
<path d="M17.6503 7.36686C17.8621 7.27853 17.999 7.23931 18.1248 7.11354C18.2507 6.98778 18.3214 6.8172 18.3214 6.63933C18.3214 6.46147 18.2507 6.29089 18.1248 6.16513C17.999 6.03936 17.9565 5.964 17.6503 5.87419C17.344 5.78438 2.45562 0.751191 2.45562 0.751191C2.21803 0.669909 1.96238 0.656857 1.71774 0.71352C1.4731 0.770182 1.24927 0.894286 1.0717 1.07173C0.894122 1.24917 0.769924 1.47282 0.713218 1.71728C0.656513 1.96174 0.669574 2.21719 0.750918 2.45459C0.750918 2.45459 5.90314 17.4473 5.96609 17.6511C6.02903 17.8549 6.11022 17.9995 6.23609 18.1253C6.36195 18.2511 6.53266 18.3217 6.71066 18.3217C6.88865 18.3217 7.05936 18.2511 7.18522 18.1253C7.31109 17.9995 7.33985 17.9283 7.43421 17.6511C7.52856 17.3739 10.0664 10.0596 10.0664 10.0596C10.0664 10.0596 17.4384 7.45518 17.6503 7.36686Z" stroke="black" stroke-linecap="round" stroke-linejoin="round"/>
</g>
<defs>
<clipPath id="clip0_0_107">
<rect width="19" height="19" fill="white"/>
</clipPath>
</defs>
</svg>
